<svg width="212" height="191" viewBox="0 0 212 191" fill="none" xmlns="http://www.w3.org/2000/svg">
<rect width="212" height="191" fill="white"/>
<path d="M113.977 155.659C106.789 156.563 99.7953 156.218 93.1887 154.777C92.0481 154.518 91.4671 153.227 92.0266 152.194L98.0737 141.134C98.418 140.489 99.1497 140.144 99.8814 140.23C101.904 140.51 103.992 140.661 106.101 140.661C131.236 140.661 151.702 120.197 151.702 95.0634C151.702 89.813 150.798 84.7562 149.162 80.0652L124.5 125.34C124.199 125.899 123.618 126.222 122.994 126.222H109.243C107.951 126.222 107.134 124.845 107.736 123.704L116.28 108.039C116.602 107.436 116.172 106.726 115.483 106.726H90.1328C89.724 106.726 89.3581 106.942 89.1645 107.307L77.2209 129.234L70.313 141.801C69.7534 142.834 68.3762 143.135 67.4508 142.382C52.4083 130.052 43.3054 110.664 45.2637 89.2965C47.9752 59.9887 71.8839 36.4692 101.237 34.1883C109.587 33.5427 117.614 34.5756 125.038 37.0071C126.286 37.416 126.824 38.8792 126.2 40.0412L120.67 50.1118C120.196 50.994 119.185 51.3814 118.216 51.1231C111.61 49.2941 104.422 48.9068 96.9762 50.3915C78.0601 54.1572 63.3835 69.8871 60.8872 89.0168C59.553 99.2595 61.6619 108.964 66.2026 117.141L93.3824 67.2403C93.5976 66.8315 94.0495 66.5732 94.5014 66.5732H109.221C110.189 66.5732 110.814 67.6061 110.34 68.4669L98.8269 89.6193C98.418 90.3509 98.956 91.2332 99.7953 91.2332H124.931C125.253 91.2332 125.555 91.061 125.727 90.7598L139.995 64.5721L139.952 64.529L146.903 51.7687C147.29 51.0586 148.258 50.9079 148.839 51.4674C161.386 63.7544 168.681 81.3993 166.959 100.658C164.441 128.933 142.19 152.108 114.02 155.659H113.977Z" fill="#578159"/>
</svg>
