<?xml version="1.0" encoding="UTF-8"?>
<svg id="Layer_1" data-name="Layer 1" xmlns="http://www.w3.org/2000/svg" viewBox="0 0 542.89 192.47">
  <defs>
    <style>
      .cls-1 { fill: #58815a; }
      .cls-1, .cls-2 { stroke-width: 0px; }
      .cls-3 { opacity: .94; }
      .cls-2 { fill: #fff; }
    </style>
  </defs>
  <g class="cls-3">
    <path class="cls-1" d="M109,156.82c-7.19.9-14.18.56-20.79-.88-1.14-.26-1.72-1.55-1.16-2.58l6.05-11.06c.34-.65,1.08-.99,1.81-.9,2.02.28,4.11.43,6.22.43,25.14,0,45.6-20.46,45.6-45.6,0-5.25-.9-10.31-2.54-15l-24.66,45.27c-.3.56-.88.88-1.51.88h-13.75c-1.29,0-2.11-1.38-1.51-2.52l8.54-15.67c.32-.6-.11-1.31-.8-1.31h-25.35c-.41,0-.77.21-.97.58l-11.94,21.93-6.91,12.57c-.56,1.03-1.94,1.33-2.86.58-15.04-12.33-24.15-31.72-22.19-53.09,2.71-29.31,26.62-52.83,55.97-55.11,8.35-.65,16.38.39,23.8,2.82,1.25.41,1.79,1.87,1.16,3.03l-5.53,10.07c-.47.88-1.49,1.27-2.45,1.01-6.61-1.83-13.79-2.22-21.24-.73-18.92,3.77-33.59,19.5-36.09,38.63-1.33,10.24.77,19.95,5.32,28.12l27.18-49.9c.22-.41.67-.67,1.12-.67h14.72c.97,0,1.59,1.03,1.12,1.89l-11.51,21.15c-.41.73.13,1.61.97,1.61h25.14c.32,0,.62-.17.8-.47l14.27-26.19-.04-.04,6.95-12.76c.39-.71,1.35-.86,1.94-.3,12.55,12.29,19.84,29.93,18.12,49.19-2.52,28.27-24.77,51.45-52.94,55h-.04Z"/>
    <path class="cls-1" d="M241.62,111.02h-14.51v-26.24h-24v26.24h-14.51v-62.68h14.51v24.45h24v-24.45h14.51v62.68ZM306.83,111.02h-16.66l-3.67-11.01h-20.69l-3.94,11.01h-16.03l26.06-62.68h11.55l23.37,62.68ZM276.48,70.36l-6.45,18.09h12.54l-6-18.09h-.09ZM311.04,111.02v-62.68h20.42c10.3,0,23.46,5.28,23.46,19.07,0,9.4-6.18,14.78-12.98,17.46,5.55,7.7,14.69,20.42,18.89,26.15h-18.09l-16.57-24.45h-.63v24.45h-14.51ZM325.55,60.33v14.24h3.85c5.82,0,10.12-2.06,10.12-6.9,0-4.39-3.4-7.34-8.42-7.34h-5.55ZM364.91,111.02v-62.68h18.8c16.3,0,34.65,8.42,34.65,31.07s-18.09,31.61-35.46,31.61h-18ZM379.42,60.33v38.68h.81c13.43,0,22.75-5.1,22.75-18.8,0-12.98-7.61-19.88-20.69-19.88h-2.87ZM439.67,111.02h-14.51v-62.68h14.51v62.68ZM502.87,111.02h-13.07l-26.51-36.36v36.36h-14.51v-62.68h12.81l26.77,36.53v-36.53h14.51v62.68Z"/>
    <path class="cls-2" d="M201.03,122.89c-1.14-.63-2.55-.94-4.23-.94h-8.2v21.86h3.96v-7.39h4.18c1.69,0,3.11-.31,4.26-.93,1.15-.63,2.03-1.48,2.62-2.57.59-1.09.89-2.33.89-3.74s-.3-2.63-.89-3.71c-.58-1.1-1.45-1.96-2.59-2.58ZM200.02,131.24c-.3.6-.76,1.07-1.39,1.41-.63.34-1.43.51-2.41.51h-3.65v-7.91h3.63c.99,0,1.8.17,2.42.5.63.33,1.1.79,1.4,1.38.31.59.46,1.27.46,2.05s-.15,1.46-.46,2.06Z"/>
    <path class="cls-2" d="M231.9,122.98c-1.51-.89-3.22-1.33-5.14-1.33s-3.63.44-5.14,1.33c-1.51.89-2.7,2.17-3.59,3.85-.88,1.67-1.31,3.69-1.31,6.04s.44,4.36,1.31,6.04c.88,1.67,2.08,2.96,3.59,3.85,1.52.89,3.23,1.33,5.14,1.33s3.63-.45,5.14-1.33c1.52-.89,2.71-2.17,3.59-3.84.88-1.68,1.32-3.7,1.32-6.05s-.44-4.37-1.32-6.04c-.88-1.68-2.07-2.96-3.59-3.85ZM232.05,137.08c-.51,1.14-1.22,2-2.14,2.59-.91.58-1.96.88-3.15.88s-2.24-.29-3.15-.88c-.91-.59-1.63-1.46-2.14-2.59-.51-1.15-.77-2.55-.77-4.21s.26-3.06.77-4.2c.52-1.15,1.23-2.01,2.14-2.59.91-.59,1.96-.89,3.15-.89s2.24.3,3.15.89c.91.58,1.62,1.45,2.14,2.59.52,1.14.78,2.54.78,4.2s-.26,3.06-.78,4.21Z"/>
    <polygon class="cls-2" points="268.63 138.02 268.44 138.02 264.23 121.95 260.35 121.95 256.14 138.01 255.94 138.01 252 121.95 247.74 121.95 253.91 143.81 257.82 143.81 262.21 128.47 262.38 128.47 266.76 143.81 270.66 143.81 276.83 121.95 272.57 121.95 268.63 138.02"/>
    <polygon class="cls-2" points="292.86 134.52 302.38 134.52 302.38 131.2 292.86 131.2 292.86 125.27 303.12 125.27 303.12 121.95 288.9 121.95 288.9 143.81 303.2 143.81 303.2 140.49 292.86 140.49 292.86 134.52"/>
    <path class="cls-2" d="M328.87,134.97c1.15-.56,2.02-1.36,2.62-2.38.6-1.03.9-2.25.9-3.65s-.3-2.62-.89-3.66c-.58-1.05-1.45-1.87-2.59-2.46-1.14-.58-2.55-.87-4.23-.87h-8.2v21.86h3.96v-8.01h4.03l4.3,8.01h4.42l-4.74-8.67c.14-.06.29-.1.42-.17ZM320.44,125.26h3.63c.99,0,1.8.15,2.42.44.63.28,1.09.71,1.4,1.26.31.55.46,1.21.46,1.99s-.15,1.43-.46,1.96c-.3.53-.76.93-1.39,1.21-.63.27-1.43.41-2.41.41h-3.65v-7.26Z"/>
    <path class="cls-2" d="M437.63,122.98c-1.51-.89-3.22-1.33-5.14-1.33s-3.63.44-5.15,1.33c-1.51.89-2.7,2.17-3.59,3.85-.88,1.67-1.31,3.69-1.31,6.04s.44,4.36,1.31,6.04c.88,1.67,2.08,2.96,3.59,3.85,1.52.89,3.23,1.33,5.15,1.33s3.63-.45,5.14-1.33c1.52-.89,2.71-2.17,3.59-3.84.88-1.68,1.32-3.7,1.32-6.05s-.44-4.37-1.32-6.04c-.88-1.68-2.07-2.96-3.59-3.85ZM437.77,137.08c-.51,1.14-1.22,2-2.14,2.59-.91.58-1.96.88-3.15.88s-2.24-.29-3.15-.88c-.91-.59-1.63-1.46-2.15-2.59-.51-1.15-.77-2.55-.77-4.21s.26-3.06.77-4.2c.52-1.15,1.23-2.01,2.15-2.59.91-.59,1.96-.89,3.15-.89s2.24.3,3.15.89c.91.58,1.62,1.45,2.14,2.59.52,1.14.78,2.54.78,4.2s-.26,3.06-.78,4.21Z"/>
    <path class="cls-2" d="M469.38,135.9c0,.91-.2,1.72-.6,2.43-.4.71-.97,1.27-1.71,1.68-.73.4-1.6.6-2.6.6s-1.87-.2-2.6-.6c-.73-.41-1.3-.96-1.71-1.68-.4-.71-.6-1.52-.6-2.43v-13.95h-3.96v14.28c0,1.57.37,2.94,1.1,4.13.73,1.19,1.77,2.12,3.1,2.79,1.33.66,2.89.99,4.68.99s3.33-.33,4.66-.99c1.33-.67,2.36-1.6,3.1-2.79.74-1.19,1.11-2.57,1.11-4.13v-14.28h-3.96v13.95Z"/>
    <path class="cls-2" d="M501.98,125.47c-.58-1.1-1.45-1.96-2.59-2.58-1.14-.63-2.55-.94-4.23-.94h-8.2v21.86h3.96v-7.39h4.18c1.69,0,3.11-.31,4.26-.93,1.15-.63,2.02-1.48,2.61-2.57.59-1.09.89-2.33.89-3.74s-.29-2.63-.89-3.71ZM498.37,131.24c-.3.6-.76,1.07-1.39,1.41-.63.34-1.43.51-2.41.51h-3.65v-7.91h3.63c.99,0,1.8.17,2.42.5.63.33,1.1.79,1.4,1.38.31.59.46,1.27.46,2.05s-.15,1.46-.46,2.06Z"/>
  </g>
</svg>
